<svg id="visual" viewBox="0 0 900 600" width="900" height="600" xmlns="http://www.w3.org/2000/svg" xmlns:xlink="http://www.w3.org/1999/xlink" version="1.1"><path d="M602 600L600.5 588.8C599 577.7 596 555.3 596 533.2C596 511 599 489 599 466.8C599 444.7 596 422.3 587 400C578 377.7 563 355.3 563 333.2C563 311 578 289 591.5 266.8C605 244.7 617 222.3 612.5 200C608 177.7 587 155.3 576.5 133.2C566 111 566 89 543.5 66.8C521 44.7 476 22.3 453.5 11.2L431 0L900 0L900 11.2C900 22.3 900 44.7 900 66.8C900 89 900 111 900 133.2C900 155.3 900 177.7 900 200C900 222.3 900 244.7 900 266.8C900 289 900 311 900 333.2C900 355.3 900 377.7 900 400C900 422.3 900 444.7 900 466.8C900 489 900 511 900 533.2C900 555.3 900 577.7 900 588.8L900 600Z" fill="#a067ff"></path><path d="M476 600L471.5 588.8C467 577.7 458 555.3 447.5 533.2C437 511 425 489 422 466.8C419 444.7 425 422.3 405.5 400C386 377.7 341 355.3 335 333.2C329 311 362 289 399.5 266.8C437 244.7 479 222.3 488 200C497 177.7 473 155.3 453.5 133.2C434 111 419 89 392 66.8C365 44.7 326 22.3 306.5 11.2L287 0L432 0L454.5 11.2C477 22.3 522 44.7 544.5 66.8C567 89 567 111 577.5 133.2C588 155.3 609 177.7 613.5 200C618 222.3 606 244.7 592.5 266.8C579 289 564 311 564 333.2C564 355.3 579 377.7 588 400C597 422.3 600 444.7 600 466.8C600 489 597 511 597 533.2C597 555.3 600 577.7 601.5 588.8L603 600Z" fill="#7c33ff"></path><path d="M161 600L162.5 588.8C164 577.7 167 555.3 173 533.2C179 511 188 489 188 466.8C188 444.7 179 422.3 164 400C149 377.7 128 355.3 131 333.2C134 311 161 289 176 266.8C191 244.7 194 222.3 182 200C170 177.7 143 155.3 129.5 133.2C116 111 116 89 113 66.8C110 44.7 104 22.3 101 11.2L98 0L288 0L307.5 11.2C327 22.3 366 44.7 393 66.8C420 89 435 111 454.5 133.2C474 155.3 498 177.7 489 200C480 222.3 438 244.7 400.5 266.8C363 289 330 311 336 333.2C342 355.3 387 377.7 406.5 400C426 422.3 420 444.7 423 466.8C426 489 438 511 448.5 533.2C459 555.3 468 577.7 472.5 588.8L477 600Z" fill="#5d01e8"></path><path d="M0 600L0 588.8C0 577.7 0 555.3 0 533.2C0 511 0 489 0 466.8C0 444.7 0 422.3 0 400C0 377.7 0 355.3 0 333.2C0 311 0 289 0 266.8C0 244.7 0 222.3 0 200C0 177.7 0 155.3 0 133.2C0 111 0 89 0 66.8C0 44.7 0 22.3 0 11.2L0 0L99 0L102 11.2C105 22.3 111 44.7 114 66.8C117 89 117 111 130.5 133.2C144 155.3 171 177.7 183 200C195 222.3 192 244.7 177 266.8C162 289 135 311 132 333.2C129 355.3 150 377.7 165 400C180 422.3 189 444.7 189 466.8C189 489 180 511 174 533.2C168 555.3 165 577.7 163.5 588.8L162 600Z" fill="#4b03ba"></path></svg>